<mxfile host="app.diagrams.net" agent="Mozilla/5.0 (Windows NT 10.0; Win64; x64) AppleWebKit/537.36 (KHTML, like Gecko) Chrome/127.0.0.0 Safari/537.36" version="24.7.7" pages="2">
  <diagram name="Página-1" id="ybKKBgU9jhQOhh3lpkK2">
    <mxGraphModel dx="959" dy="805" grid="1" gridSize="10" guides="1" tooltips="1" connect="1" arrows="1" fold="1" page="0" pageScale="1" pageWidth="827" pageHeight="1169" background="none" math="0" shadow="0">
      <root>
        <mxCell id="0" />
        <mxCell id="1" parent="0" />
        <mxCell id="nTfhQK5Qbow8ZmXz-HQb-46" value="" style="rounded=0;whiteSpace=wrap;html=1;" parent="1" vertex="1">
          <mxGeometry x="-370" y="-20" width="560" height="330" as="geometry" />
        </mxCell>
        <mxCell id="nTfhQK5Qbow8ZmXz-HQb-5" value="Bicicleta" style="swimlane;fontStyle=1;align=center;verticalAlign=top;childLayout=stackLayout;horizontal=1;startSize=26;horizontalStack=0;resizeParent=1;resizeParentMax=0;resizeLast=0;collapsible=1;marginBottom=0;whiteSpace=wrap;html=1;" parent="1" vertex="1">
          <mxGeometry x="-360" width="193" height="130" as="geometry" />
        </mxCell>
        <mxCell id="nTfhQK5Qbow8ZmXz-HQb-6" value="+ velocidade: number&lt;div&gt;+ aro: number&lt;/div&gt;&lt;div&gt;+ cor: string&lt;/div&gt;" style="text;strokeColor=none;fillColor=none;align=left;verticalAlign=top;spacingLeft=4;spacingRight=4;overflow=hidden;rotatable=0;points=[[0,0.5],[1,0.5]];portConstraint=eastwest;whiteSpace=wrap;html=1;" parent="nTfhQK5Qbow8ZmXz-HQb-5" vertex="1">
          <mxGeometry y="26" width="193" height="54" as="geometry" />
        </mxCell>
        <mxCell id="nTfhQK5Qbow8ZmXz-HQb-7" value="" style="line;strokeWidth=1;fillColor=none;align=left;verticalAlign=middle;spacingTop=-1;spacingLeft=3;spacingRight=3;rotatable=0;labelPosition=right;points=[];portConstraint=eastwest;strokeColor=inherit;" parent="nTfhQK5Qbow8ZmXz-HQb-5" vertex="1">
          <mxGeometry y="80" width="193" height="8" as="geometry" />
        </mxCell>
        <mxCell id="nTfhQK5Qbow8ZmXz-HQb-8" value="+ pedalar(): void&lt;div&gt;+ frear(): void&lt;/div&gt;" style="text;strokeColor=none;fillColor=none;align=left;verticalAlign=top;spacingLeft=4;spacingRight=4;overflow=hidden;rotatable=0;points=[[0,0.5],[1,0.5]];portConstraint=eastwest;whiteSpace=wrap;html=1;" parent="nTfhQK5Qbow8ZmXz-HQb-5" vertex="1">
          <mxGeometry y="88" width="193" height="42" as="geometry" />
        </mxCell>
        <mxCell id="nTfhQK5Qbow8ZmXz-HQb-28" value="Esmalte" style="swimlane;fontStyle=1;align=center;verticalAlign=top;childLayout=stackLayout;horizontal=1;startSize=26;horizontalStack=0;resizeParent=1;resizeParentMax=0;resizeLast=0;collapsible=1;marginBottom=0;whiteSpace=wrap;html=1;" parent="1" vertex="1">
          <mxGeometry x="-160" width="170" height="130" as="geometry" />
        </mxCell>
        <mxCell id="nTfhQK5Qbow8ZmXz-HQb-29" value="+ cor: string&lt;div&gt;+&amp;nbsp; nome: string&lt;/div&gt;&lt;div&gt;+ marca: string&lt;/div&gt;" style="text;strokeColor=none;fillColor=none;align=left;verticalAlign=top;spacingLeft=4;spacingRight=4;overflow=hidden;rotatable=0;points=[[0,0.5],[1,0.5]];portConstraint=eastwest;whiteSpace=wrap;html=1;" parent="nTfhQK5Qbow8ZmXz-HQb-28" vertex="1">
          <mxGeometry y="26" width="170" height="54" as="geometry" />
        </mxCell>
        <mxCell id="nTfhQK5Qbow8ZmXz-HQb-30" value="" style="line;strokeWidth=1;fillColor=none;align=left;verticalAlign=middle;spacingTop=-1;spacingLeft=3;spacingRight=3;rotatable=0;labelPosition=right;points=[];portConstraint=eastwest;strokeColor=inherit;" parent="nTfhQK5Qbow8ZmXz-HQb-28" vertex="1">
          <mxGeometry y="80" width="170" height="10" as="geometry" />
        </mxCell>
        <mxCell id="nTfhQK5Qbow8ZmXz-HQb-31" value="+ aplicar(unha: string): void&lt;div&gt;+ secar(esmalte: string): void&lt;/div&gt;" style="text;strokeColor=none;fillColor=none;align=left;verticalAlign=top;spacingLeft=4;spacingRight=4;overflow=hidden;rotatable=0;points=[[0,0.5],[1,0.5]];portConstraint=eastwest;whiteSpace=wrap;html=1;" parent="nTfhQK5Qbow8ZmXz-HQb-28" vertex="1">
          <mxGeometry y="90" width="170" height="40" as="geometry" />
        </mxCell>
        <mxCell id="nTfhQK5Qbow8ZmXz-HQb-32" value="Computador" style="swimlane;fontStyle=1;align=center;verticalAlign=top;childLayout=stackLayout;horizontal=1;startSize=26;horizontalStack=0;resizeParent=1;resizeParentMax=0;resizeLast=0;collapsible=1;marginBottom=0;whiteSpace=wrap;html=1;" parent="1" vertex="1">
          <mxGeometry x="20" width="160" height="130" as="geometry" />
        </mxCell>
        <mxCell id="nTfhQK5Qbow8ZmXz-HQb-33" value="+ processador: string&lt;div&gt;+ memória: number&lt;/div&gt;&lt;div&gt;+ preço: number&lt;/div&gt;" style="text;strokeColor=none;fillColor=none;align=left;verticalAlign=top;spacingLeft=4;spacingRight=4;overflow=hidden;rotatable=0;points=[[0,0.5],[1,0.5]];portConstraint=eastwest;whiteSpace=wrap;html=1;" parent="nTfhQK5Qbow8ZmXz-HQb-32" vertex="1">
          <mxGeometry y="26" width="160" height="54" as="geometry" />
        </mxCell>
        <mxCell id="nTfhQK5Qbow8ZmXz-HQb-34" value="" style="line;strokeWidth=1;fillColor=none;align=left;verticalAlign=middle;spacingTop=-1;spacingLeft=3;spacingRight=3;rotatable=0;labelPosition=right;points=[];portConstraint=eastwest;strokeColor=inherit;" parent="nTfhQK5Qbow8ZmXz-HQb-32" vertex="1">
          <mxGeometry y="80" width="160" height="8" as="geometry" />
        </mxCell>
        <mxCell id="nTfhQK5Qbow8ZmXz-HQb-35" value="+ jogar(jogo: string): string&lt;div&gt;+ pesquisar(): string&lt;/div&gt;" style="text;strokeColor=none;fillColor=none;align=left;verticalAlign=top;spacingLeft=4;spacingRight=4;overflow=hidden;rotatable=0;points=[[0,0.5],[1,0.5]];portConstraint=eastwest;whiteSpace=wrap;html=1;" parent="nTfhQK5Qbow8ZmXz-HQb-32" vertex="1">
          <mxGeometry y="88" width="160" height="42" as="geometry" />
        </mxCell>
        <mxCell id="nTfhQK5Qbow8ZmXz-HQb-36" value="Livro" style="swimlane;fontStyle=1;align=center;verticalAlign=top;childLayout=stackLayout;horizontal=1;startSize=26;horizontalStack=0;resizeParent=1;resizeParentMax=0;resizeLast=0;collapsible=1;marginBottom=0;whiteSpace=wrap;html=1;" parent="1" vertex="1">
          <mxGeometry x="-360" y="150" width="160" height="130" as="geometry" />
        </mxCell>
        <mxCell id="nTfhQK5Qbow8ZmXz-HQb-37" value="+ titulo: string&lt;div&gt;+ numeroPaginas: number&lt;/div&gt;&lt;div&gt;+ editora: string&lt;/div&gt;" style="text;strokeColor=none;fillColor=none;align=left;verticalAlign=top;spacingLeft=4;spacingRight=4;overflow=hidden;rotatable=0;points=[[0,0.5],[1,0.5]];portConstraint=eastwest;whiteSpace=wrap;html=1;" parent="nTfhQK5Qbow8ZmXz-HQb-36" vertex="1">
          <mxGeometry y="26" width="160" height="54" as="geometry" />
        </mxCell>
        <mxCell id="nTfhQK5Qbow8ZmXz-HQb-38" value="" style="line;strokeWidth=1;fillColor=none;align=left;verticalAlign=middle;spacingTop=-1;spacingLeft=3;spacingRight=3;rotatable=0;labelPosition=right;points=[];portConstraint=eastwest;strokeColor=inherit;" parent="nTfhQK5Qbow8ZmXz-HQb-36" vertex="1">
          <mxGeometry y="80" width="160" height="8" as="geometry" />
        </mxCell>
        <mxCell id="nTfhQK5Qbow8ZmXz-HQb-39" value="+ abrir(): void&lt;div&gt;+ fechar(): void&lt;/div&gt;" style="text;strokeColor=none;fillColor=none;align=left;verticalAlign=top;spacingLeft=4;spacingRight=4;overflow=hidden;rotatable=0;points=[[0,0.5],[1,0.5]];portConstraint=eastwest;whiteSpace=wrap;html=1;" parent="nTfhQK5Qbow8ZmXz-HQb-36" vertex="1">
          <mxGeometry y="88" width="160" height="42" as="geometry" />
        </mxCell>
        <mxCell id="nTfhQK5Qbow8ZmXz-HQb-40" value="Barco" style="swimlane;fontStyle=1;align=center;verticalAlign=top;childLayout=stackLayout;horizontal=1;startSize=26;horizontalStack=0;resizeParent=1;resizeParentMax=0;resizeLast=0;collapsible=1;marginBottom=0;whiteSpace=wrap;html=1;" parent="1" vertex="1">
          <mxGeometry x="-190" y="150" width="160" height="130" as="geometry" />
        </mxCell>
        <mxCell id="nTfhQK5Qbow8ZmXz-HQb-41" value="+ largura: number&lt;div&gt;+ capacidade: number&lt;/div&gt;&lt;div&gt;+ peso: number&lt;/div&gt;" style="text;strokeColor=none;fillColor=none;align=left;verticalAlign=top;spacingLeft=4;spacingRight=4;overflow=hidden;rotatable=0;points=[[0,0.5],[1,0.5]];portConstraint=eastwest;whiteSpace=wrap;html=1;" parent="nTfhQK5Qbow8ZmXz-HQb-40" vertex="1">
          <mxGeometry y="26" width="160" height="54" as="geometry" />
        </mxCell>
        <mxCell id="nTfhQK5Qbow8ZmXz-HQb-42" value="" style="line;strokeWidth=1;fillColor=none;align=left;verticalAlign=middle;spacingTop=-1;spacingLeft=3;spacingRight=3;rotatable=0;labelPosition=right;points=[];portConstraint=eastwest;strokeColor=inherit;" parent="nTfhQK5Qbow8ZmXz-HQb-40" vertex="1">
          <mxGeometry y="80" width="160" height="8" as="geometry" />
        </mxCell>
        <mxCell id="nTfhQK5Qbow8ZmXz-HQb-43" value="+ navegar(): void&lt;div&gt;+ ancorar(): void&lt;/div&gt;" style="text;strokeColor=none;fillColor=none;align=left;verticalAlign=top;spacingLeft=4;spacingRight=4;overflow=hidden;rotatable=0;points=[[0,0.5],[1,0.5]];portConstraint=eastwest;whiteSpace=wrap;html=1;" parent="nTfhQK5Qbow8ZmXz-HQb-40" vertex="1">
          <mxGeometry y="88" width="160" height="42" as="geometry" />
        </mxCell>
      </root>
    </mxGraphModel>
  </diagram>
  <diagram id="0gipaqpTHiwku1ItfIVd" name="Página-2">
    <mxGraphModel dx="749" dy="345" grid="1" gridSize="10" guides="1" tooltips="1" connect="1" arrows="1" fold="1" page="0" pageScale="1" pageWidth="827" pageHeight="1169" math="0" shadow="0">
      <root>
        <mxCell id="0" />
        <mxCell id="1" parent="0" />
        <mxCell id="88bx2GSEQw_zEk0qc66o-1" value="Cacamba" style="swimlane;fontStyle=1;align=center;verticalAlign=top;childLayout=stackLayout;horizontal=1;startSize=26;horizontalStack=0;resizeParent=1;resizeParentMax=0;resizeLast=0;collapsible=1;marginBottom=0;whiteSpace=wrap;html=1;" vertex="1" parent="1">
          <mxGeometry x="270" y="10" width="160" height="130" as="geometry" />
        </mxCell>
        <mxCell id="88bx2GSEQw_zEk0qc66o-2" value="+ capacidade: number&lt;div&gt;+ material: string&lt;/div&gt;&lt;div&gt;+ tamanho: number&lt;/div&gt;" style="text;strokeColor=none;fillColor=none;align=left;verticalAlign=top;spacingLeft=4;spacingRight=4;overflow=hidden;rotatable=0;points=[[0,0.5],[1,0.5]];portConstraint=eastwest;whiteSpace=wrap;html=1;" vertex="1" parent="88bx2GSEQw_zEk0qc66o-1">
          <mxGeometry y="26" width="160" height="54" as="geometry" />
        </mxCell>
        <mxCell id="88bx2GSEQw_zEk0qc66o-3" value="" style="line;strokeWidth=1;fillColor=none;align=left;verticalAlign=middle;spacingTop=-1;spacingLeft=3;spacingRight=3;rotatable=0;labelPosition=right;points=[];portConstraint=eastwest;strokeColor=inherit;" vertex="1" parent="88bx2GSEQw_zEk0qc66o-1">
          <mxGeometry y="80" width="160" height="8" as="geometry" />
        </mxCell>
        <mxCell id="88bx2GSEQw_zEk0qc66o-4" value="+ carregar(): void&lt;div&gt;+ descarregar(): void&lt;/div&gt;" style="text;strokeColor=none;fillColor=none;align=left;verticalAlign=top;spacingLeft=4;spacingRight=4;overflow=hidden;rotatable=0;points=[[0,0.5],[1,0.5]];portConstraint=eastwest;whiteSpace=wrap;html=1;" vertex="1" parent="88bx2GSEQw_zEk0qc66o-1">
          <mxGeometry y="88" width="160" height="42" as="geometry" />
        </mxCell>
        <mxCell id="88bx2GSEQw_zEk0qc66o-5" value="Extintor de incendio" style="swimlane;fontStyle=1;align=center;verticalAlign=top;childLayout=stackLayout;horizontal=1;startSize=26;horizontalStack=0;resizeParent=1;resizeParentMax=0;resizeLast=0;collapsible=1;marginBottom=0;whiteSpace=wrap;html=1;" vertex="1" parent="1">
          <mxGeometry x="450" y="10" width="160" height="130" as="geometry" />
        </mxCell>
        <mxCell id="88bx2GSEQw_zEk0qc66o-6" value="+ tipo: string&lt;div&gt;+ capacidade: number&lt;/div&gt;&lt;div&gt;+ pressao: number&lt;/div&gt;" style="text;strokeColor=none;fillColor=none;align=left;verticalAlign=top;spacingLeft=4;spacingRight=4;overflow=hidden;rotatable=0;points=[[0,0.5],[1,0.5]];portConstraint=eastwest;whiteSpace=wrap;html=1;" vertex="1" parent="88bx2GSEQw_zEk0qc66o-5">
          <mxGeometry y="26" width="160" height="54" as="geometry" />
        </mxCell>
        <mxCell id="88bx2GSEQw_zEk0qc66o-7" value="" style="line;strokeWidth=1;fillColor=none;align=left;verticalAlign=middle;spacingTop=-1;spacingLeft=3;spacingRight=3;rotatable=0;labelPosition=right;points=[];portConstraint=eastwest;strokeColor=inherit;" vertex="1" parent="88bx2GSEQw_zEk0qc66o-5">
          <mxGeometry y="80" width="160" height="8" as="geometry" />
        </mxCell>
        <mxCell id="88bx2GSEQw_zEk0qc66o-8" value="+ acionar(): void&lt;div&gt;+ verificarPressao(): void&lt;/div&gt;" style="text;strokeColor=none;fillColor=none;align=left;verticalAlign=top;spacingLeft=4;spacingRight=4;overflow=hidden;rotatable=0;points=[[0,0.5],[1,0.5]];portConstraint=eastwest;whiteSpace=wrap;html=1;" vertex="1" parent="88bx2GSEQw_zEk0qc66o-5">
          <mxGeometry y="88" width="160" height="42" as="geometry" />
        </mxCell>
        <mxCell id="88bx2GSEQw_zEk0qc66o-9" value="Cone" style="swimlane;fontStyle=1;align=center;verticalAlign=top;childLayout=stackLayout;horizontal=1;startSize=26;horizontalStack=0;resizeParent=1;resizeParentMax=0;resizeLast=0;collapsible=1;marginBottom=0;whiteSpace=wrap;html=1;" vertex="1" parent="1">
          <mxGeometry x="630" y="10" width="160" height="130" as="geometry" />
        </mxCell>
        <mxCell id="88bx2GSEQw_zEk0qc66o-10" value="+ altura: number&lt;div&gt;+ cor: string&lt;/div&gt;&lt;div&gt;+ material: string&lt;/div&gt;" style="text;strokeColor=none;fillColor=none;align=left;verticalAlign=top;spacingLeft=4;spacingRight=4;overflow=hidden;rotatable=0;points=[[0,0.5],[1,0.5]];portConstraint=eastwest;whiteSpace=wrap;html=1;" vertex="1" parent="88bx2GSEQw_zEk0qc66o-9">
          <mxGeometry y="26" width="160" height="54" as="geometry" />
        </mxCell>
        <mxCell id="88bx2GSEQw_zEk0qc66o-11" value="" style="line;strokeWidth=1;fillColor=none;align=left;verticalAlign=middle;spacingTop=-1;spacingLeft=3;spacingRight=3;rotatable=0;labelPosition=right;points=[];portConstraint=eastwest;strokeColor=inherit;" vertex="1" parent="88bx2GSEQw_zEk0qc66o-9">
          <mxGeometry y="80" width="160" height="8" as="geometry" />
        </mxCell>
        <mxCell id="88bx2GSEQw_zEk0qc66o-12" value="+ posicionar(): void&lt;div&gt;+ remover(): void&lt;/div&gt;" style="text;strokeColor=none;fillColor=none;align=left;verticalAlign=top;spacingLeft=4;spacingRight=4;overflow=hidden;rotatable=0;points=[[0,0.5],[1,0.5]];portConstraint=eastwest;whiteSpace=wrap;html=1;" vertex="1" parent="88bx2GSEQw_zEk0qc66o-9">
          <mxGeometry y="88" width="160" height="42" as="geometry" />
        </mxCell>
        <mxCell id="88bx2GSEQw_zEk0qc66o-13" value="Porta" style="swimlane;fontStyle=1;align=center;verticalAlign=top;childLayout=stackLayout;horizontal=1;startSize=26;horizontalStack=0;resizeParent=1;resizeParentMax=0;resizeLast=0;collapsible=1;marginBottom=0;whiteSpace=wrap;html=1;" vertex="1" parent="1">
          <mxGeometry x="810" y="10" width="160" height="130" as="geometry" />
        </mxCell>
        <mxCell id="88bx2GSEQw_zEk0qc66o-14" value="+ material: string&lt;div&gt;+ altura: number&lt;/div&gt;&lt;div&gt;+ tipo: string&lt;/div&gt;" style="text;strokeColor=none;fillColor=none;align=left;verticalAlign=top;spacingLeft=4;spacingRight=4;overflow=hidden;rotatable=0;points=[[0,0.5],[1,0.5]];portConstraint=eastwest;whiteSpace=wrap;html=1;" vertex="1" parent="88bx2GSEQw_zEk0qc66o-13">
          <mxGeometry y="26" width="160" height="54" as="geometry" />
        </mxCell>
        <mxCell id="88bx2GSEQw_zEk0qc66o-15" value="" style="line;strokeWidth=1;fillColor=none;align=left;verticalAlign=middle;spacingTop=-1;spacingLeft=3;spacingRight=3;rotatable=0;labelPosition=right;points=[];portConstraint=eastwest;strokeColor=inherit;" vertex="1" parent="88bx2GSEQw_zEk0qc66o-13">
          <mxGeometry y="80" width="160" height="8" as="geometry" />
        </mxCell>
        <mxCell id="88bx2GSEQw_zEk0qc66o-16" value="+ abrir(): void&lt;div&gt;+ fechar(): void&lt;/div&gt;&lt;div&gt;&lt;br&gt;&lt;/div&gt;" style="text;strokeColor=none;fillColor=none;align=left;verticalAlign=top;spacingLeft=4;spacingRight=4;overflow=hidden;rotatable=0;points=[[0,0.5],[1,0.5]];portConstraint=eastwest;whiteSpace=wrap;html=1;" vertex="1" parent="88bx2GSEQw_zEk0qc66o-13">
          <mxGeometry y="88" width="160" height="42" as="geometry" />
        </mxCell>
        <mxCell id="88bx2GSEQw_zEk0qc66o-17" value="Poste" style="swimlane;fontStyle=1;align=center;verticalAlign=top;childLayout=stackLayout;horizontal=1;startSize=26;horizontalStack=0;resizeParent=1;resizeParentMax=0;resizeLast=0;collapsible=1;marginBottom=0;whiteSpace=wrap;html=1;" vertex="1" parent="1">
          <mxGeometry x="990" y="10" width="160" height="130" as="geometry" />
        </mxCell>
        <mxCell id="88bx2GSEQw_zEk0qc66o-18" value="+ altura: number&lt;div&gt;+ material: string&lt;/div&gt;&lt;div&gt;+ cor: string&lt;/div&gt;" style="text;strokeColor=none;fillColor=none;align=left;verticalAlign=top;spacingLeft=4;spacingRight=4;overflow=hidden;rotatable=0;points=[[0,0.5],[1,0.5]];portConstraint=eastwest;whiteSpace=wrap;html=1;" vertex="1" parent="88bx2GSEQw_zEk0qc66o-17">
          <mxGeometry y="26" width="160" height="54" as="geometry" />
        </mxCell>
        <mxCell id="88bx2GSEQw_zEk0qc66o-19" value="" style="line;strokeWidth=1;fillColor=none;align=left;verticalAlign=middle;spacingTop=-1;spacingLeft=3;spacingRight=3;rotatable=0;labelPosition=right;points=[];portConstraint=eastwest;strokeColor=inherit;" vertex="1" parent="88bx2GSEQw_zEk0qc66o-17">
          <mxGeometry y="80" width="160" height="8" as="geometry" />
        </mxCell>
        <mxCell id="88bx2GSEQw_zEk0qc66o-20" value="+ ligarLuz(): void&lt;div&gt;+desligarLuz(): void&lt;/div&gt;" style="text;strokeColor=none;fillColor=none;align=left;verticalAlign=top;spacingLeft=4;spacingRight=4;overflow=hidden;rotatable=0;points=[[0,0.5],[1,0.5]];portConstraint=eastwest;whiteSpace=wrap;html=1;" vertex="1" parent="88bx2GSEQw_zEk0qc66o-17">
          <mxGeometry y="88" width="160" height="42" as="geometry" />
        </mxCell>
        <mxCell id="88bx2GSEQw_zEk0qc66o-21" value="Lixeira" style="swimlane;fontStyle=1;align=center;verticalAlign=top;childLayout=stackLayout;horizontal=1;startSize=26;horizontalStack=0;resizeParent=1;resizeParentMax=0;resizeLast=0;collapsible=1;marginBottom=0;whiteSpace=wrap;html=1;" vertex="1" parent="1">
          <mxGeometry x="270" y="180" width="160" height="130" as="geometry" />
        </mxCell>
        <mxCell id="88bx2GSEQw_zEk0qc66o-22" value="+ capacidade: number&lt;div&gt;+ material: string&lt;/div&gt;&lt;div&gt;+ cor: string&lt;/div&gt;" style="text;strokeColor=none;fillColor=none;align=left;verticalAlign=top;spacingLeft=4;spacingRight=4;overflow=hidden;rotatable=0;points=[[0,0.5],[1,0.5]];portConstraint=eastwest;whiteSpace=wrap;html=1;" vertex="1" parent="88bx2GSEQw_zEk0qc66o-21">
          <mxGeometry y="26" width="160" height="54" as="geometry" />
        </mxCell>
        <mxCell id="88bx2GSEQw_zEk0qc66o-23" value="" style="line;strokeWidth=1;fillColor=none;align=left;verticalAlign=middle;spacingTop=-1;spacingLeft=3;spacingRight=3;rotatable=0;labelPosition=right;points=[];portConstraint=eastwest;strokeColor=inherit;" vertex="1" parent="88bx2GSEQw_zEk0qc66o-21">
          <mxGeometry y="80" width="160" height="8" as="geometry" />
        </mxCell>
        <mxCell id="88bx2GSEQw_zEk0qc66o-24" value="+ abrirTampa(): void&lt;div&gt;+ fecharTampa(): void&lt;/div&gt;" style="text;strokeColor=none;fillColor=none;align=left;verticalAlign=top;spacingLeft=4;spacingRight=4;overflow=hidden;rotatable=0;points=[[0,0.5],[1,0.5]];portConstraint=eastwest;whiteSpace=wrap;html=1;" vertex="1" parent="88bx2GSEQw_zEk0qc66o-21">
          <mxGeometry y="88" width="160" height="42" as="geometry" />
        </mxCell>
        <mxCell id="88bx2GSEQw_zEk0qc66o-29" value="Banco" style="swimlane;fontStyle=1;align=center;verticalAlign=top;childLayout=stackLayout;horizontal=1;startSize=26;horizontalStack=0;resizeParent=1;resizeParentMax=0;resizeLast=0;collapsible=1;marginBottom=0;whiteSpace=wrap;html=1;" vertex="1" parent="1">
          <mxGeometry x="630" y="180" width="160" height="130" as="geometry" />
        </mxCell>
        <mxCell id="88bx2GSEQw_zEk0qc66o-30" value="+ material: string&lt;div&gt;+ capacidade: number&lt;/div&gt;&lt;div&gt;+ cor: string&lt;/div&gt;" style="text;strokeColor=none;fillColor=none;align=left;verticalAlign=top;spacingLeft=4;spacingRight=4;overflow=hidden;rotatable=0;points=[[0,0.5],[1,0.5]];portConstraint=eastwest;whiteSpace=wrap;html=1;" vertex="1" parent="88bx2GSEQw_zEk0qc66o-29">
          <mxGeometry y="26" width="160" height="54" as="geometry" />
        </mxCell>
        <mxCell id="88bx2GSEQw_zEk0qc66o-31" value="" style="line;strokeWidth=1;fillColor=none;align=left;verticalAlign=middle;spacingTop=-1;spacingLeft=3;spacingRight=3;rotatable=0;labelPosition=right;points=[];portConstraint=eastwest;strokeColor=inherit;" vertex="1" parent="88bx2GSEQw_zEk0qc66o-29">
          <mxGeometry y="80" width="160" height="8" as="geometry" />
        </mxCell>
        <mxCell id="88bx2GSEQw_zEk0qc66o-32" value="+ sentar(pessoa): void&lt;div&gt;+ levantar(pessoa): void&lt;/div&gt;" style="text;strokeColor=none;fillColor=none;align=left;verticalAlign=top;spacingLeft=4;spacingRight=4;overflow=hidden;rotatable=0;points=[[0,0.5],[1,0.5]];portConstraint=eastwest;whiteSpace=wrap;html=1;" vertex="1" parent="88bx2GSEQw_zEk0qc66o-29">
          <mxGeometry y="88" width="160" height="42" as="geometry" />
        </mxCell>
        <mxCell id="88bx2GSEQw_zEk0qc66o-33" value="Bebedouro" style="swimlane;fontStyle=1;align=center;verticalAlign=top;childLayout=stackLayout;horizontal=1;startSize=26;horizontalStack=0;resizeParent=1;resizeParentMax=0;resizeLast=0;collapsible=1;marginBottom=0;whiteSpace=wrap;html=1;" vertex="1" parent="1">
          <mxGeometry x="810" y="180" width="200" height="130" as="geometry" />
        </mxCell>
        <mxCell id="88bx2GSEQw_zEk0qc66o-34" value="&lt;div&gt;+ capacidadeReservatório: number&lt;/div&gt;&lt;div&gt;+ material: string&lt;/div&gt;&lt;div&gt;+ temperaturaAgua: number&lt;/div&gt;" style="text;strokeColor=none;fillColor=none;align=left;verticalAlign=top;spacingLeft=4;spacingRight=4;overflow=hidden;rotatable=0;points=[[0,0.5],[1,0.5]];portConstraint=eastwest;whiteSpace=wrap;html=1;" vertex="1" parent="88bx2GSEQw_zEk0qc66o-33">
          <mxGeometry y="26" width="200" height="54" as="geometry" />
        </mxCell>
        <mxCell id="88bx2GSEQw_zEk0qc66o-35" value="" style="line;strokeWidth=1;fillColor=none;align=left;verticalAlign=middle;spacingTop=-1;spacingLeft=3;spacingRight=3;rotatable=0;labelPosition=right;points=[];portConstraint=eastwest;strokeColor=inherit;" vertex="1" parent="88bx2GSEQw_zEk0qc66o-33">
          <mxGeometry y="80" width="200" height="8" as="geometry" />
        </mxCell>
        <mxCell id="88bx2GSEQw_zEk0qc66o-36" value="+ fornecerAgua(): void&lt;div&gt;+ realizarManutencao(): void&lt;/div&gt;" style="text;strokeColor=none;fillColor=none;align=left;verticalAlign=top;spacingLeft=4;spacingRight=4;overflow=hidden;rotatable=0;points=[[0,0.5],[1,0.5]];portConstraint=eastwest;whiteSpace=wrap;html=1;" vertex="1" parent="88bx2GSEQw_zEk0qc66o-33">
          <mxGeometry y="88" width="200" height="42" as="geometry" />
        </mxCell>
        <mxCell id="88bx2GSEQw_zEk0qc66o-37" value="Tambor" style="swimlane;fontStyle=1;align=center;verticalAlign=top;childLayout=stackLayout;horizontal=1;startSize=26;horizontalStack=0;resizeParent=1;resizeParentMax=0;resizeLast=0;collapsible=1;marginBottom=0;whiteSpace=wrap;html=1;" vertex="1" parent="1">
          <mxGeometry x="1030" y="180" width="160" height="130" as="geometry" />
        </mxCell>
        <mxCell id="88bx2GSEQw_zEk0qc66o-38" value="+ material: string&lt;div&gt;+ cor: string&lt;/div&gt;&lt;div&gt;+ peso: number&lt;/div&gt;" style="text;strokeColor=none;fillColor=none;align=left;verticalAlign=top;spacingLeft=4;spacingRight=4;overflow=hidden;rotatable=0;points=[[0,0.5],[1,0.5]];portConstraint=eastwest;whiteSpace=wrap;html=1;" vertex="1" parent="88bx2GSEQw_zEk0qc66o-37">
          <mxGeometry y="26" width="160" height="54" as="geometry" />
        </mxCell>
        <mxCell id="88bx2GSEQw_zEk0qc66o-39" value="" style="line;strokeWidth=1;fillColor=none;align=left;verticalAlign=middle;spacingTop=-1;spacingLeft=3;spacingRight=3;rotatable=0;labelPosition=right;points=[];portConstraint=eastwest;strokeColor=inherit;" vertex="1" parent="88bx2GSEQw_zEk0qc66o-37">
          <mxGeometry y="80" width="160" height="8" as="geometry" />
        </mxCell>
        <mxCell id="88bx2GSEQw_zEk0qc66o-40" value="+ encher(liquido): void&lt;div&gt;+ esvaziar(): void&lt;/div&gt;" style="text;strokeColor=none;fillColor=none;align=left;verticalAlign=top;spacingLeft=4;spacingRight=4;overflow=hidden;rotatable=0;points=[[0,0.5],[1,0.5]];portConstraint=eastwest;whiteSpace=wrap;html=1;" vertex="1" parent="88bx2GSEQw_zEk0qc66o-37">
          <mxGeometry y="88" width="160" height="42" as="geometry" />
        </mxCell>
        <mxCell id="v69ZYg_lajUExo5TqMHo-5" value="Bicicleta" style="swimlane;fontStyle=1;align=center;verticalAlign=top;childLayout=stackLayout;horizontal=1;startSize=26;horizontalStack=0;resizeParent=1;resizeParentMax=0;resizeLast=0;collapsible=1;marginBottom=0;whiteSpace=wrap;html=1;" vertex="1" parent="1">
          <mxGeometry x="440" y="180" width="180" height="130" as="geometry" />
        </mxCell>
        <mxCell id="v69ZYg_lajUExo5TqMHo-6" value="+ velocidade: number&lt;div&gt;+ aro: number&lt;/div&gt;&lt;div&gt;+ cor: string&lt;/div&gt;" style="text;strokeColor=none;fillColor=none;align=left;verticalAlign=top;spacingLeft=4;spacingRight=4;overflow=hidden;rotatable=0;points=[[0,0.5],[1,0.5]];portConstraint=eastwest;whiteSpace=wrap;html=1;" vertex="1" parent="v69ZYg_lajUExo5TqMHo-5">
          <mxGeometry y="26" width="180" height="54" as="geometry" />
        </mxCell>
        <mxCell id="v69ZYg_lajUExo5TqMHo-7" value="" style="line;strokeWidth=1;fillColor=none;align=left;verticalAlign=middle;spacingTop=-1;spacingLeft=3;spacingRight=3;rotatable=0;labelPosition=right;points=[];portConstraint=eastwest;strokeColor=inherit;" vertex="1" parent="v69ZYg_lajUExo5TqMHo-5">
          <mxGeometry y="80" width="180" height="8" as="geometry" />
        </mxCell>
        <mxCell id="v69ZYg_lajUExo5TqMHo-8" value="+ pedalar(): void&lt;div&gt;+ frear(): void&lt;/div&gt;" style="text;strokeColor=none;fillColor=none;align=left;verticalAlign=top;spacingLeft=4;spacingRight=4;overflow=hidden;rotatable=0;points=[[0,0.5],[1,0.5]];portConstraint=eastwest;whiteSpace=wrap;html=1;" vertex="1" parent="v69ZYg_lajUExo5TqMHo-5">
          <mxGeometry y="88" width="180" height="42" as="geometry" />
        </mxCell>
      </root>
    </mxGraphModel>
  </diagram>
</mxfile>
